<svg xmlns="http://www.w3.org/2000/svg" xmlns:xlink="http://www.w3.org/1999/xlink" width="36" height="36" viewBox="0 0 36 36">
  <defs>
    <clipPath id="clip-path">
      <rect id="Прямоугольник_264" data-name="Прямоугольник 264" width="36" height="36" transform="translate(980 2460)" fill="#a30041"/>
    </clipPath>
  </defs>
  <g id="Группа_масок_96" data-name="Группа масок 96" transform="translate(-980 -2460)" clip-path="url(#clip-path)">
    <path id="Контур_25173" data-name="Контур 25173" d="M34.6,17.083,19.2,1.678A5.691,5.691,0,0,0,15.148,0H3.273A3.276,3.276,0,0,0,0,3.273V15.148A5.69,5.69,0,0,0,1.678,19.2l15.4,15.4a4.768,4.768,0,0,0,6.744,0L34.6,23.826a4.769,4.769,0,0,0,0-6.744ZM6.545,9.818A3.273,3.273,0,1,1,9.818,6.545,3.276,3.276,0,0,1,6.545,9.818Z" transform="translate(980 2460)" fill="#a30041"/>
    <path id="Контур_25174" data-name="Контур 25174" d="M9.121,1.67a1.368,1.368,0,0,0,1.211-.654L18.8-9.726a2.49,2.49,0,0,0,.22-.454A1.254,1.254,0,0,0,19.1-10.6a1.134,1.134,0,0,0-.332-.845,1.172,1.172,0,0,0-.859-.327,1.179,1.179,0,0,0-.615.146,1.455,1.455,0,0,0-.459.488L9.082-1.25,6.151-5.4a1.254,1.254,0,0,0-1.025-.547,1.194,1.194,0,0,0-.874.342,1.145,1.145,0,0,0-.347.85,1.275,1.275,0,0,0,.083.454,1.491,1.491,0,0,0,.278.444L7.91,1.035A1.511,1.511,0,0,0,9.121,1.67Z" transform="translate(996.085 2491.886) rotate(-45)" fill="#fff"/>
  </g>
</svg>
