<svg xmlns="http://www.w3.org/2000/svg" xmlns:xlink="http://www.w3.org/1999/xlink" width="36" height="36" viewBox="0 0 36 36">
  <defs>
    <clipPath id="clip-path">
      <rect id="Прямоугольник_68" data-name="Прямоугольник 68" width="36" height="36" transform="translate(980 2460)" fill="#a30041"/>
    </clipPath>
  </defs>
  <g id="Группа_масок_90" data-name="Группа масок 90" transform="translate(-980 -2460)" clip-path="url(#clip-path)">
    <g id="shopping-bag" transform="translate(980 2460)">
      <path id="Контур_25160" data-name="Контур 25160" d="M30.766,7.51H23.233V5.3a5.234,5.234,0,1,0-10.467-.067V7.51H5.234A1.478,1.478,0,0,0,3.755,8.988V21a5.945,5.945,0,0,0,1.09,3.438.844.844,0,0,0,1.508-.289,11.993,11.993,0,0,1,23.295,0,.844.844,0,0,0,1.508.289A5.945,5.945,0,0,0,32.245,21V8.988A1.479,1.479,0,0,0,30.766,7.51Zm-10.49,0H15.724V5.233a2.276,2.276,0,1,1,4.553,0Z" fill="#a30041"/>
      <path id="Контур_25161" data-name="Контур 25161" d="M26.987,26.943a8.987,8.987,0,0,0-17.975,0h0c0,.023,0,.046,0,.069a8.988,8.988,0,0,0,17.977,0c0-.023,0-.046,0-.069ZM21.3,26.555l-3,3a1.478,1.478,0,0,1-2.091,0l-1.5-1.5a1.479,1.479,0,0,1,2.091-2.091l.456.457,1.958-1.958A1.478,1.478,0,0,1,21.3,26.555Z" fill="#a30041"/>
    </g>
  </g>
</svg>
