<svg xmlns="http://www.w3.org/2000/svg" xmlns:xlink="http://www.w3.org/1999/xlink" width="36" height="36" viewBox="0 0 36 36">
  <defs>
    <clipPath id="clip-path">
      <rect id="Прямоугольник_263" data-name="Прямоугольник 263" width="36" height="36" transform="translate(980 2460)" fill="#a30041"/>
    </clipPath>
  </defs>
  <g id="Группа_масок_95" data-name="Группа масок 95" transform="translate(-980 -2460)" clip-path="url(#clip-path)">
    <g id="price-tag-2" transform="translate(980 2460)">
      <g id="Сгруппировать_2983" data-name="Сгруппировать 2983">
        <path id="Вычитание_1" data-name="Вычитание 1" d="M19429.453,21421a4.794,4.794,0,0,1-3.371-1.4l-15.4-15.4a5.674,5.674,0,0,1-1.678-4.053v-11.871a3.275,3.275,0,0,1,3.27-3.273h11.875a5.674,5.674,0,0,1,4.053,1.678l15.4,15.4a4.767,4.767,0,0,1,0,6.746l-10.773,10.773A4.8,4.8,0,0,1,19429.453,21421Zm-3.641-12.736a.861.861,0,0,0-.607.252l-2.559,2.561a.845.845,0,0,0-.252.6.824.824,0,0,0,.826.85h.021a.81.81,0,0,0,.6-.254l2.559-2.559a.822.822,0,0,0,.252-.6.8.8,0,0,0-.242-.607.771.771,0,0,0-.58-.242Zm2.926-11.83a.511.511,0,0,0-.367.158l-.043.049a1.4,1.4,0,0,0-.375,1.5l3.43,10.828a.506.506,0,0,0,.393.371.743.743,0,0,0,.145.016.484.484,0,0,0,.365-.156l.049-.049a1.394,1.394,0,0,0,.371-1.5l-3.43-10.828a.511.511,0,0,0-.387-.365A.6.6,0,0,0,19428.738,21396.434Zm-3.115,3.76a2.86,2.86,0,0,0-2.025.947,2.82,2.82,0,0,0-.945,2.113,3.974,3.974,0,0,0,3.322,3.316h.107a2.853,2.853,0,0,0,2.01-.936,2.8,2.8,0,0,0,.936-2.117,3.974,3.974,0,0,0-3.316-3.322C19425.682,21400.193,19425.652,21400.193,19425.623,21400.193Zm8.971-.979a3.241,3.241,0,0,0-2.965,3.061,3.986,3.986,0,0,0,3.322,3.316h.092a3.251,3.251,0,0,0,2.963-3.053,3.977,3.977,0,0,0-3.322-3.322C19434.654,21399.215,19434.623,21399.215,19434.594,21399.215Zm-19.049-10.939a3.271,3.271,0,1,0,3.273,3.27A3.275,3.275,0,0,0,19415.545,21388.275Zm10.908,16.582a2.081,2.081,0,0,1-1.328-.766,2.058,2.058,0,0,1-.754-1.311.827.827,0,0,1,.27-.6.84.84,0,0,1,.6-.27,2.044,2.044,0,0,1,1.311.754,2.1,2.1,0,0,1,.766,1.324.834.834,0,0,1-.266.6A.815.815,0,0,1,19426.453,21404.857Zm8.969-.984a2.915,2.915,0,0,1-2.076-2.078.824.824,0,0,1,.268-.6.838.838,0,0,1,.6-.268,2.106,2.106,0,0,1,1.322.764,2.529,2.529,0,0,1,.721,1.08.893.893,0,0,1-.832,1.1Z" transform="translate(-19409 -21385)" fill="#a30041"/>
      </g>
    </g>
  </g>
</svg>
