<svg xmlns="http://www.w3.org/2000/svg" xmlns:xlink="http://www.w3.org/1999/xlink" width="36" height="36" viewBox="0 0 36 36">
  <defs>
    <clipPath id="clip-path">
      <rect id="Прямоугольник_68" data-name="Прямоугольник 68" width="36" height="36" transform="translate(980 2460)" fill="#a30041"/>
    </clipPath>
  </defs>
  <g id="Группа_масок_122" data-name="Группа масок 122" transform="translate(-980 -2460)" clip-path="url(#clip-path)">
    <g id="high-five" transform="translate(980 2460)">
      <path id="Контур_39825" data-name="Контур 39825" d="M18,4.219a1.054,1.054,0,0,0,1.055-1.055V1.055a1.055,1.055,0,0,0-2.109,0V3.164A1.054,1.054,0,0,0,18,4.219Zm0,0" fill="#a30041"/>
      <path id="Контур_39826" data-name="Контур 39826" d="M22.964,6.019,25.074,3.91a1.055,1.055,0,0,0-1.491-1.491L21.473,4.528a1.055,1.055,0,0,0,1.491,1.491Zm0,0" fill="#a30041"/>
      <path id="Контур_39827" data-name="Контур 39827" d="M13.036,6.019a1.055,1.055,0,0,0,1.491-1.491L12.418,2.418A1.055,1.055,0,0,0,10.926,3.91Zm0,0" fill="#a30041"/>
      <path id="Контур_39828" data-name="Контур 39828" d="M9.492,14.906a4.219,4.219,0,1,0-4.219,4.219A4.223,4.223,0,0,0,9.492,14.906Zm0,0" fill="#a30041"/>
      <path id="Контур_39829" data-name="Контур 39829" d="M18,8.508a3.168,3.168,0,0,0-3.164,3.164,7.513,7.513,0,0,1-7.453,7.453H5.273A5.28,5.28,0,0,0,0,24.4V34.945A1.054,1.054,0,0,0,1.055,36H9.492a1.043,1.043,0,0,0,1.041-1.054l.006-9.863A13.82,13.82,0,0,0,21.164,11.672,3.168,3.168,0,0,0,18,8.508Zm0,0" fill="#a30041"/>
      <path id="Контур_39830" data-name="Контур 39830" d="M34.945,14.906a4.219,4.219,0,1,0-4.219,4.219A4.223,4.223,0,0,0,34.945,14.906Zm0,0" fill="#a30041"/>
      <path id="Контур_39831" data-name="Контур 39831" d="M30.727,19.125H28.617a7.553,7.553,0,0,1-5.98-3.073A15.591,15.591,0,0,1,19.51,21.9a14.146,14.146,0,0,0,5.951,3.185l.006,9.864A1.043,1.043,0,0,0,26.508,36h8.438A1.054,1.054,0,0,0,36,34.945V24.4A5.28,5.28,0,0,0,30.727,19.125Zm0,0" fill="#a30041"/>
    </g>
  </g>
</svg>
