<svg xmlns="http://www.w3.org/2000/svg" xmlns:xlink="http://www.w3.org/1999/xlink" width="36" height="36" viewBox="0 0 36 36">
  <defs>
    <clipPath id="clip-path">
      <rect id="Прямоугольник_672" data-name="Прямоугольник 672" width="36" height="36" transform="translate(522 876)" fill="#a30041"/>
    </clipPath>
  </defs>
  <g id="Группа_масок_124" data-name="Группа масок 124" transform="translate(-522 -876)" clip-path="url(#clip-path)">
    <g id="add" transform="translate(522 876)">
      <path id="Контур_39834" data-name="Контур 39834" d="M19.875,0H4.125A4.123,4.123,0,0,0,0,4.125v23.25A4.123,4.123,0,0,0,4.125,31.5h11.34a11.9,11.9,0,0,1-1.215-5.25,11.5,11.5,0,0,1,.615-3.75,10.839,10.839,0,0,1,1.005-2.25A12.141,12.141,0,0,1,24,14.46V4.125A4.123,4.123,0,0,0,19.875,0ZM18,15.375a1.124,1.124,0,0,1-1.92.8L14.9,14.985l-2.131,1.967a1.123,1.123,0,0,1-1.321.15L9.564,16.028,6.42,19.17a1.125,1.125,0,0,1-1.59-1.592l3.75-3.75a1.12,1.12,0,0,1,1.353-.181l1.91,1.092L13.3,13.392l-.972-.972a1.124,1.124,0,0,1,.8-1.92h3.75A1.125,1.125,0,0,1,18,11.625Z" fill="#a30041"/>
      <path id="Контур_39835" data-name="Контур 39835" d="M26.25,16.5A9.75,9.75,0,1,0,36,26.25,9.761,9.761,0,0,0,26.25,16.5Zm4.125,10.875h-3v3a1.125,1.125,0,0,1-2.25,0v-3h-3a1.125,1.125,0,0,1,0-2.25h3v-3a1.125,1.125,0,0,1,2.25,0v3h3a1.125,1.125,0,0,1,0,2.25Z" fill="#a30041"/>
    </g>
  </g>
</svg>
