<svg xmlns="http://www.w3.org/2000/svg" xmlns:xlink="http://www.w3.org/1999/xlink" width="36" height="36" viewBox="0 0 36 36">
  <defs>
    <clipPath id="clip-path">
      <rect id="Прямоугольник_246" data-name="Прямоугольник 246" width="36" height="36" transform="translate(792 672)" fill="#a30041"/>
    </clipPath>
  </defs>
  <g id="Группа_масок_83" data-name="Группа масок 83" transform="translate(-792 -672)" clip-path="url(#clip-path)">
    <g id="gift-card" transform="translate(792 677.625)">
      <g id="Сгруппировать_2944" data-name="Сгруппировать 2944" transform="translate(0 13.5)">
        <g id="Сгруппировать_2943" data-name="Сгруппировать 2943">
          <path id="Контур_25132" data-name="Контур 25132" d="M16.546,24.422a1.126,1.126,0,0,1-1.593-1.591l3.706-3.706H0v9a2.252,2.252,0,0,0,2.25,2.25h18V20.716Zm-4.171,1.453H5.625a1.125,1.125,0,1,1,0-2.25h6.75a1.125,1.125,0,0,1,0,2.25Z" transform="translate(0 -19.125)" fill="#a30041"/>
        </g>
      </g>
      <g id="Сгруппировать_2946" data-name="Сгруппировать 2946" transform="translate(22.5)">
        <g id="Сгруппировать_2945" data-name="Сгруппировать 2945">
          <path id="Контур_25133" data-name="Контур 25133" d="M33.75,5.625H22.5v9.252c1.262-1.514,2.731-3.256,3.238-3.762a3.374,3.374,0,0,1,4.772,4.772,6.63,6.63,0,0,1-1.87.988H36v-9A2.252,2.252,0,0,0,33.75,5.625Z" transform="translate(-22.5 -5.625)" fill="#a30041"/>
        </g>
      </g>
      <g id="Сгруппировать_2948" data-name="Сгруппировать 2948" transform="translate(13.499 6.75)">
        <g id="Сгруппировать_2947" data-name="Сгруппировать 2947">
          <path id="Контур_25134" data-name="Контур 25134" d="M15.422,12.7a1.126,1.126,0,0,0-1.593,1.591,24.664,24.664,0,0,0,4.342,1.6C17,14.49,15.808,13.093,15.422,12.7Z" transform="translate(-13.499 -12.375)" fill="#a30041"/>
        </g>
      </g>
      <g id="Сгруппировать_2950" data-name="Сгруппировать 2950">
        <g id="Сгруппировать_2949" data-name="Сгруппировать 2949">
          <path id="Контур_25135" data-name="Контур 25135" d="M2.25,5.625A2.254,2.254,0,0,0,0,7.875v9H14.11a6.684,6.684,0,0,1-1.872-.988,3.374,3.374,0,0,1,4.772-4.772c.509.506,1.978,2.246,3.24,3.762V5.625Z" transform="translate(0 -5.625)" fill="#a30041"/>
        </g>
      </g>
      <g id="Сгруппировать_2952" data-name="Сгруппировать 2952" transform="translate(22.5 13.5)">
        <g id="Сгруппировать_2951" data-name="Сгруппировать 2951">
          <path id="Контур_25136" data-name="Контур 25136" d="M24.091,19.125l3.706,3.7A1.126,1.126,0,0,1,26.2,24.422l-3.7-3.706v9.659H33.75A2.251,2.251,0,0,0,36,28.125v-9Z" transform="translate(-22.5 -19.125)" fill="#a30041"/>
        </g>
      </g>
      <g id="Сгруппировать_2954" data-name="Сгруппировать 2954" transform="translate(24.579 6.75)">
        <g id="Сгруппировать_2953" data-name="Сгруппировать 2953">
          <path id="Контур_25137" data-name="Контур 25137" d="M28.922,12.7a1.13,1.13,0,0,0-1.593,0c-.387.387-1.575,1.787-2.75,3.191a23.774,23.774,0,0,0,4.365-1.625A1.117,1.117,0,0,0,28.922,12.7Z" transform="translate(-24.579 -12.375)" fill="#a30041"/>
        </g>
      </g>
    </g>
  </g>
</svg>
